<?xml version="1.0" encoding="iso-8859-1"?>
<!-- Generator: Adobe Illustrator 18.0.0, SVG Export Plug-In . SVG Version: 6.00 Build 0)  -->
<!DOCTYPE svg PUBLIC "-//W3C//DTD SVG 1.1//EN" "http://www.w3.org/Graphics/SVG/1.1/DTD/svg11.dtd">
<svg xmlns="http://www.w3.org/2000/svg" xmlns:xlink="http://www.w3.org/1999/xlink" version="1.1" id="Capa_1" x="0px" y="0px" viewBox="0 0 59.979 59.979" style="enable-background:new 0 0 59.979 59.979;" xml:space="preserve" width="512px" height="512px">
<g>
	<path d="M10.282,36.791V22.13c1.23-0.532,2.767-1.422,4.196-2.885c1.407,0.73,4.807,2.158,10.707,2.729l0.562,0.05l0.337-0.448   c0.12-0.159,3.026-3.903,10.354-3.903c1.022,0,2.095,0.075,3.194,0.224c0.662,1.147,2.59,3.776,6.348,3.776   c1.347,0,2.788-0.35,4.302-1.043v15.72l1.698-1.654c0.233-0.227,5.698-5.684,4.292-15.853c-0.563-4.081-2.322-7.604-4.825-9.668   c-0.644-0.531-1.116-1.365-1.402-2.479c-0.827-3.209-3.847-5.451-7.694-5.714c-2.154-0.153-3.992,0.515-6.028,1.331   c-0.101,0.041-0.256,0.007-0.277-0.05C35.495,0.804,34.117,0,32.163,0c-3.021,0-6.896,1.86-10.129,4.811   c0.006-0.89,0.192-1.686,0.695-1.937l1.686-0.842l-1.643-0.924c-0.074-0.042-1.842-1.021-4.162-1.021   c-1.94,0-3.681,0.661-5.172,1.966C12.2,3.135,11.301,4.648,10.84,6.43c-0.095,0.364-0.191,0.755-0.277,1.139   c-0.043,0.189-0.219,0.24-0.306,0.24c-0.103,0-0.157-0.052-0.224-0.131c-0.458-0.56-1.13-0.881-1.844-0.881   c-0.932,0-1.739,0.53-2.107,1.385C4.095,12.793,0.353,24.6,8.507,34.611L10.282,36.791z" fill="#91f3fa"/>
	<path d="M39.501,32.979c-2.757,0-5,2.243-5,5s2.243,5,5,5s5-2.243,5-5S42.258,32.979,39.501,32.979z" fill="#91f3fa"/>
	<path d="M21.501,32.979c-2.757,0-5,2.243-5,5s2.243,5,5,5s5-2.243,5-5S24.258,32.979,21.501,32.979z" fill="#91f3fa"/>
	<path d="M48.282,23.414c-0.784,0.172-1.553,0.259-2.302,0.259c-3.982,0-6.345-2.295-7.509-3.898   c-0.697-0.067-1.379-0.102-2.033-0.102c-6.259,0-8.664,2.987-8.764,3.115l-0.997,1.327l-1.669-0.148   c-4.881-0.473-8.182-1.511-10.154-2.342c-0.795,0.673-1.654,1.26-2.572,1.756v19.032l-4-4.911v13.477c0,2.757,2.243,5,5,5h3v1.694   c0,1.271,1.034,2.306,2.305,2.306h23.39c1.271,0,2.306-1.034,2.306-2.306v-1.694h3c2.757,0,5-2.243,5-5V37.193l-4,3.896V23.414z    M32.701,25.38l3-4c0.331-0.442,0.958-0.531,1.399-0.2c0.442,0.331,0.532,0.958,0.2,1.399l-1.8,2.4h3   c0.379,0,0.725,0.214,0.895,0.553c0.169,0.339,0.133,0.744-0.095,1.047l-3,4c-0.196,0.263-0.496,0.4-0.801,0.4   c-0.209,0-0.419-0.065-0.599-0.2c-0.442-0.331-0.532-0.958-0.2-1.399l1.8-2.4h-3c-0.379,0-0.725-0.214-0.895-0.553   C32.438,26.088,32.474,25.682,32.701,25.38z M22.501,49.979c0-0.553,0.447-1,1-1h14c0.553,0,1,0.447,1,1s-0.447,1-1,1h-14   C22.948,50.979,22.501,50.532,22.501,49.979z M39.501,44.979c-3.634,0-6.629-2.785-6.966-6.332   c-0.01-0.057-0.034-0.108-0.034-0.168c-0.079-0.088-0.796-0.5-2-0.5s-1.921,0.412-2.017,0.583c0,0.031-0.015,0.056-0.017,0.086   c-0.338,3.547-3.332,6.331-6.966,6.331c-3.859,0-7-3.141-7-7s3.141-7,7-7c3.301,0,6.07,2.301,6.803,5.381   c0.62-0.241,1.365-0.381,2.197-0.381s1.577,0.14,2.197,0.381c0.734-3.08,3.502-5.381,6.803-5.381c3.859,0,7,3.141,7,7   S43.361,44.979,39.501,44.979z" fill="#91f3fa"/>
</g>
<g>
</g>
<g>
</g>
<g>
</g>
<g>
</g>
<g>
</g>
<g>
</g>
<g>
</g>
<g>
</g>
<g>
</g>
<g>
</g>
<g>
</g>
<g>
</g>
<g>
</g>
<g>
</g>
<g>
</g>
</svg>
