<?xml version="1.0" encoding="iso-8859-1"?>
<!-- Generator: Adobe Illustrator 18.1.1, SVG Export Plug-In . SVG Version: 6.00 Build 0)  -->
<svg xmlns="http://www.w3.org/2000/svg" xmlns:xlink="http://www.w3.org/1999/xlink" version="1.1" id="Capa_1" x="0px" y="0px" viewBox="0 0 284.006 284.006" style="enable-background:new 0 0 284.006 284.006;" xml:space="preserve" width="512px" height="512px">
<g>
	<path d="M206.089,53.036v-16.14H77.918v16.14c-20.81,6.479-35.915,25.892-35.915,48.832v131.001   c0,28.244,22.894,51.137,51.135,51.137h97.729c28.241,0,51.136-22.892,51.136-51.137V101.868   C242.003,77.785,226.897,59.518,206.089,53.036z M217.003,235.695h-150v-88.577H98.32c7.989-16.042,24.544-27.068,43.683-27.068   s35.693,11.026,43.682,27.068h31.318V235.695z" fill="#91f3fa"/>
	<path d="M76.189,28.375h131.627c7.837,0,14.186-6.352,14.186-14.189c0-7.835-6.35-14.186-14.186-14.186H76.189   c-7.837,0-14.187,6.352-14.187,14.186C62.003,22.023,68.353,28.375,76.189,28.375z" fill="#91f3fa"/>
</g>
<g>
</g>
<g>
</g>
<g>
</g>
<g>
</g>
<g>
</g>
<g>
</g>
<g>
</g>
<g>
</g>
<g>
</g>
<g>
</g>
<g>
</g>
<g>
</g>
<g>
</g>
<g>
</g>
<g>
</g>
</svg>
